<svg xmlns="http://www.w3.org/2000/svg" width="10cm" height="8cm" version="1.1" viewBox="265 -156 186 159"><metadata/><rect width="49.1" height="30.5" x="308" y="-152" fill="#fff"/><rect width="49.1" height="30.5" x="308" y="-152" fill="none" stroke="#000" stroke-width="2"/><text x="332.46" y="-134.831" fill="#000" font-family="sans-serif" font-size="6.77" text-anchor="middle"><tspan x="332.46" y="-134.831">IFD</tspan></text><rect width="49.1" height="59.8" x="308" y="-60.7" fill="#fff"/><text x="332.46" y="-30.228" fill="#000" font-family="sans-serif" font-size="6.77" text-anchor="middle"><tspan x="332.46" y="-30.228">BIOS</tspan></text><rect width="49.1" height="59.8" x="308" y="-60.7" fill="none" stroke="#000" stroke-width="2"/><rect width="49.1" height="30.9" x="308" y="-91.6" fill="#fff"/><rect width="49.1" height="30.9" x="308" y="-91.6" fill="none" stroke="#000" stroke-width="2"/><text x="332.46" y="-74.1" fill="#000" font-family="sans-serif" font-size="6.77" text-anchor="middle"><tspan x="332.46" y="-74.1">ME</tspan></text><rect width="49.1" height="30.5" x="308" y="-122" fill="#fff"/><rect width="49.1" height="30.5" x="308" y="-122" fill="none" stroke="#000" stroke-width="2"/><text x="332.46" y="-104.364" fill="#000" font-family="sans-serif" font-size="6.77" text-anchor="middle"><tspan x="332.46" y="-104.364">GBE</tspan></text><g font-family="sans-serif" font-size="6.77"><text x="265.968" y="-149.208"><tspan x="265.968" y="-149.208">0x000000</tspan></text><text x="266.362" y="-120.102"><tspan x="266.362" y="-120.102">0x001000</tspan></text><text x="266.162" y="-88.897"><tspan x="266.162" y="-88.897">0x003000</tspan></text><text x="266.144" y="-59.324"><tspan x="266.144" y="-59.324">0x200000</tspan></text><text x="266.326" y="-1.152"><tspan x="266.326" y="-1.152">0x400000</tspan></text></g><path fill="none" stroke="#000" d="m381-151c21 0-1.5 77.5 19.8 78.5"/><path fill="none" stroke="#000" d="m381-0.763c13.9 0 5.64-72 19.5-72"/><text x="406.127" y="-68.513" fill="#000" font-family="sans-serif" font-size="10.2"><tspan x="406.127" y="-68.513">Flash</tspan></text></svg>