<svg xmlns="http://www.w3.org/2000/svg" xmlns:xlink="http://www.w3.org/1999/xlink" width="9cm" height="8cm" viewBox="268 -156 168 158"><g><g><g><rect style="fill:#fff" width="49.144" height="30.467" x="307.888" y="-152.131"/><rect style="fill:none;fill-opacity:0;stroke-width:2;stroke:#fff" width="49.144" height="30.467" x="307.888" y="-152.131"/></g><rect style="fill:none;fill-opacity:0;stroke-width:2;stroke:#fff" width="49.144" height="30.467" x="307.888" y="-152.131"/></g><rect style="fill:none;fill-opacity:0;stroke-width:2;stroke:#000" width="49.144" height="30.467" x="307.888" y="-152.131"/><text font-size="6.773" style="fill:#000;text-anchor:middle;font-family:sans-serif;font-style:normal;font-weight:400" x="332.46" y="-134.831"><tspan x="332.46" y="-134.831">IFD</tspan></text></g><g><g><rect style="fill:#fff" width="49.144" height="56.149" x="307.934" y="-56.911"/><rect style="fill:none;fill-opacity:0;stroke-width:.02;stroke:#fff" width="49.144" height="56.149" x="307.934" y="-56.911"/></g><rect style="fill:none;fill-opacity:0;stroke-width:.02;stroke:#fff" width="49.144" height="56.149" x="307.934" y="-56.911"/></g><rect style="fill:none;fill-opacity:0;stroke-width:2;stroke:#000" width="49.144" height="57.284" x="308.096" y="-57.559"/><text font-size="6.773" style="fill:#000;text-anchor:middle;font-family:sans-serif;font-style:normal;font-weight:400" x="332.182" y="-24.024"><tspan x="332.182" y="-24.024">BIOS</tspan></text><g><g><g><rect style="fill:#fff" width="49.144" height="30.467" x="308" y="-121.59"/><rect style="fill:none;fill-opacity:0;stroke-width:2;stroke:#fff" width="49.144" height="30.467" x="308" y="-121.59"/></g><rect style="fill:none;fill-opacity:0;stroke-width:2;stroke:#fff" width="49.144" height="30.467" x="308" y="-121.59"/></g><rect style="fill:none;fill-opacity:0;stroke-width:2;stroke:#000" width="49.144" height="30.467" x="308" y="-121.59"/><text font-size="6.773" style="fill:#000;text-anchor:middle;font-family:sans-serif;font-style:normal;font-weight:400" x="332.572" y="-104.29"><tspan x="332.572" y="-104.29">GBE</tspan></text></g><text font-size="7.157" style="fill:#000;text-anchor:start;font-family:sans-serif;font-style:normal;font-weight:400" x="268.961" y="-148.674"><tspan x="268.961" y="-148.674">0x000000</tspan></text><text font-size="6.773" style="fill:#000;text-anchor:start;font-family:sans-serif;font-style:normal;font-weight:400" x="269.152" y="-120.399"><tspan x="269.152" y="-120.399">0x001000</tspan></text><text font-size="6.773" style="fill:#000;text-anchor:start;font-family:sans-serif;font-style:normal;font-weight:400" x="269.155" y="-90.647"><tspan x="269.155" y="-90.647">0x003000</tspan></text><text font-size="6.773" style="fill:#000;text-anchor:start;font-family:sans-serif;font-style:normal;font-weight:400" x="269.461" y="-56.429"><tspan x="269.461" y="-56.429">0x020000</tspan></text><text font-size="6.773" style="fill:#000;text-anchor:start;font-family:sans-serif;font-style:normal;font-weight:400" x="270.008" y=".198"><tspan x="270.008" y=".198">0x800000</tspan></text><path style="fill:none;fill-opacity:0;stroke-width:1;stroke:#000" d="M 380.877 -151.013 C 401.876,-151.013 379.377,-73.513 400.627,-72.513"/><path style="fill:none;fill-opacity:0;stroke-width:1;stroke:#000" d="M 381.377 -0.763268 C 395.238,-0.763268 387.016,-72.763 400.877,-72.763"/><text font-size="6.773" style="fill:#000;text-anchor:start;font-family:sans-serif;font-style:normal;font-weight:400" x="406.127" y="-68.513"><tspan x="406.127" y="-68.513">Flash #0</tspan></text><g><g><g><rect style="fill:#fff" width="49.144" height="33.416" x="308.189" y="-90.59"/><rect style="fill:none;fill-opacity:0;stroke-width:2;stroke:#fff" width="49.144" height="33.416" x="308.189" y="-90.59"/></g><rect style="fill:none;fill-opacity:0;stroke-width:2;stroke:#fff" width="49.144" height="33.416" x="308.189" y="-90.59"/></g><rect style="fill:none;fill-opacity:0;stroke-width:2;stroke:#000" width="49.144" height="32.822" x="308.189" y="-90.59"/><text font-size="6.773" style="fill:#000;text-anchor:middle;font-family:sans-serif;font-style:normal;font-weight:400" x="331.572" y="-70.23"><tspan x="331.572" y="-70.23">ME</tspan></text></g></svg>