<svg xmlns="http://www.w3.org/2000/svg" xmlns:xlink="http://www.w3.org/1999/xlink" width="10cm" height="8cm" viewBox="265 -156 186 159"><g><rect style="fill:#fff" width="49.144" height="30.467" x="307.888" y="-152.131"/><rect style="fill:none;fill-opacity:0;stroke-width:2;stroke:#000" width="49.144" height="30.467" x="307.888" y="-152.131"/><text font-size="6.773" style="fill:#000;text-anchor:middle;font-family:sans-serif;font-style:normal;font-weight:400" x="332.46" y="-134.831"><tspan x="332.46" y="-134.831">IFD</tspan></text></g><g><rect style="fill:#fff" width="49.144" height="59.776" x="308" y="-91.184"/><rect style="fill:none;fill-opacity:0;stroke-width:2;stroke:#000" width="49.144" height="59.776" x="308" y="-91.184"/><text font-size="6.773" style="fill:#000;text-anchor:middle;font-family:sans-serif;font-style:normal;font-weight:400" x="332.572" y="-59.23"><tspan x="332.572" y="-59.23">ME</tspan></text></g><g><rect style="fill:#fff" width="49.144" height="30.883" x="307.934" y="-31.644"/><rect style="fill:none;fill-opacity:0;stroke-width:2;stroke:#000" width="49.144" height="30.883" x="307.934" y="-31.644"/><text font-size="6.773" style="fill:#000;text-anchor:middle;font-family:sans-serif;font-style:normal;font-weight:400" x="332.506" y="-14.136"><tspan x="332.506" y="-14.136">BIOS</tspan></text></g><g><rect style="fill:#fff" width="49.144" height="30.467" x="308" y="-121.59"/><rect style="fill:none;fill-opacity:0;stroke-width:2;stroke:#000" width="49.144" height="30.467" x="308" y="-121.59"/><text font-size="6.773" style="fill:#000;text-anchor:middle;font-family:sans-serif;font-style:normal;font-weight:400" x="332.572" y="-104.29"><tspan x="332.572" y="-104.29">GBE</tspan></text></g><text font-size="6.773" style="fill:#000;text-anchor:start;font-family:sans-serif;font-style:normal;font-weight:400" x="265.968" y="-149.208"><tspan x="265.968" y="-149.208">0x000000</tspan></text><text font-size="6.773" style="fill:#000;text-anchor:start;font-family:sans-serif;font-style:normal;font-weight:400" x="266.362" y="-120.102"><tspan x="266.362" y="-120.102">0x001000</tspan></text><text font-size="6.773" style="fill:#000;text-anchor:start;font-family:sans-serif;font-style:normal;font-weight:400" x="266.162" y="-88.897"><tspan x="266.162" y="-88.897">0x003000</tspan></text><text font-size="6.773" style="fill:#000;text-anchor:start;font-family:sans-serif;font-style:normal;font-weight:400" x="266.144" y="-29.666"><tspan x="266.144" y="-29.666">0x500000</tspan></text><text font-size="6.773" style="fill:#000;text-anchor:start;font-family:sans-serif;font-style:normal;font-weight:400" x="266.326" y="1.874"><tspan x="266.326" y="1.874">0x800000</tspan></text><path style="fill:none;fill-opacity:0;stroke-width:1;stroke:#000" d="M 380.877 -151.013 C 401.876,-151.013 379.377,-73.513 400.627,-72.513"/><path style="fill:none;fill-opacity:0;stroke-width:1;stroke:#000" d="M 381.377 -0.763268 C 395.238,-0.763268 387.016,-72.763 400.877,-72.763"/><text font-size="10.16" style="fill:#000;text-anchor:start;font-family:sans-serif;font-style:normal;font-weight:400" x="406.127" y="-68.513"><tspan x="406.127" y="-68.513">Flash #0</tspan></text></svg>