<svg xmlns="http://www.w3.org/2000/svg" xmlns:xlink="http://www.w3.org/1999/xlink" width="15cm" height="11cm" viewBox="520 311 299 204"><g><rect style="fill:#fff" width="296.25" height="201.75" x="521.518" y="312.25"/><rect style="fill:none;fill-opacity:0;stroke-width:2;stroke:#fff" width="296.25" height="201.75" x="521.518" y="312.25"/></g><g><rect style="fill:#fff" width="72.375" height="173.833" x="689.333" y="321.667"/><rect style="fill:none;fill-opacity:0;stroke-width:2;stroke:#000" width="72.375" height="173.833" x="689.333" y="321.667"/></g><path style="fill:none;fill-opacity:0;stroke-width:2;stroke:#000" d="M 603.917 320.833 C 593.071,320.833 601.631,407 590.785,407"/><path style="fill:none;fill-opacity:0;stroke-width:2;stroke:#000" d="M 601.667 493.833 C 590.821,493.833 600.131,407.75 589.285,407.75"/><text font-size="12.8" style="fill:#000;text-anchor:start;font-family:sans-serif;font-style:normal;font-weight:400" x="520.833" y="412"><tspan x="520.833" y="412">bootblock</tspan></text><line style="fill:none;fill-opacity:0;stroke-width:1;stroke-dasharray:4;stroke:#000" x1="686.167" x2="781.167" y1="352" y2="352"/><line style="fill:none;fill-opacity:0;stroke-width:1;stroke-dasharray:4;stroke:#000" x1="685.8" x2="780.8" y1="334.433" y2="334.433"/><line style="fill:none;fill-opacity:0;stroke-width:1;stroke-dasharray:4;stroke:#000" x1="682.8" x2="777.8" y1="410.933" y2="410.933"/><g><path style="fill:none;fill-opacity:0;stroke-width:1;stroke:#00f" d="M 652.833,345.667 A 30.938,30.938 0 0 0 647.806,407.306"/><polygon style="fill:#00f" points="650.775 407.521 646.813 409.595 647.775 407.577 646.738 405.596"/><polygon style="fill:none;fill-opacity:0;stroke-width:1;stroke:#00f" points="650.775 407.521 646.813 409.595 647.775 407.577 646.738 405.596"/></g><g><rect style="fill:#fff" width="60.208" height="10.5" x="694.75" y="367"/><rect style="fill:none;fill-opacity:0;stroke-width:1;stroke:#00f" width="60.208" height="10.5" x="694.75" y="367"/></g><text font-size="5.644" style="fill:#000;text-anchor:start;font-family:sans-serif;font-style:normal;font-weight:400" x="653" y="323.333"><tspan x="653" y="323.333">4 GiB</tspan></text><text font-size="5.644" style="fill:#000;text-anchor:start;font-family:sans-serif;font-style:normal;font-weight:400" x="651.967" y="336.017"><tspan x="651.967" y="336.017">4 GiB - 10h</tspan></text><text font-size="5.644" style="fill:#000;text-anchor:start;font-family:sans-serif;font-style:normal;font-weight:400" x="653.633" y="410.183"><tspan x="653.633" y="410.183">4 GiB - x</tspan></text><text font-size="5.644" style="fill:#000;text-anchor:start;font-family:sans-serif;font-style:normal;font-weight:400" x="650.967" y="353.183"><tspan x="650.967" y="353.183">4 GiB - 40 h</tspan></text><line style="fill:none;fill-opacity:0;stroke-width:1;stroke:#00f" x1="652.458" x2="685" y1="346" y2="345.833"/><text font-size="7.902" style="fill:#00f;text-anchor:start;font-family:monospace;font-style:normal;font-weight:400" x="707.958" y="348.25"><tspan x="707.958" y="348.25">FIT Ptr</tspan></text><text font-size="7.902" style="fill:red;text-anchor:start;font-family:monospace;font-style:normal;font-weight:400" x="692.933" y="330.55"><tspan x="692.933" y="330.55">IA32 reset vec</tspan></text><g><rect style="fill:#fff" width="60.208" height="41.533" x="693.183" y="449.25"/><rect style="fill:none;fill-opacity:0;stroke-width:1;stroke:red" width="60.208" height="41.533" x="693.183" y="449.25"/></g><g><path style="fill:none;fill-opacity:0;stroke-width:1;stroke:red" d="M 655.208,326.75 A 61.4124,61.4124 0 0 0 645.824,444.152"/><polygon style="fill:red" points="648.64 445.169 644.228 445.895 645.775 444.281 645.412 442.075"/><polygon style="fill:none;fill-opacity:0;stroke-width:1;stroke:red" points="648.64 445.169 644.228 445.895 645.775 444.281 645.412 442.075"/></g><text font-size="5.644" style="fill:#000;text-anchor:start;font-family:sans-serif;font-style:normal;font-weight:400" x="653.683" y="449.95"><tspan x="653.683" y="449.95">4 GiB - z</tspan></text><g><rect style="fill:#fff" width="60.208" height="12" x="693.683" y="432"/><rect style="fill:none;fill-opacity:0;stroke-width:1;stroke:red" width="60.208" height="12" x="693.683" y="432"/></g><g><rect style="fill:#fff" width="60.208" height="12" x="693.933" y="416.2"/><rect style="fill:none;fill-opacity:0;stroke-width:1;stroke:#0f0" width="60.208" height="12" x="693.933" y="416.2"/></g><text font-size="5.644" style="fill:#000;text-anchor:start;font-family:sans-serif;font-style:normal;font-weight:400" x="653.183" y="432.2"><tspan x="653.183" y="432.2">4 GiB - y</tspan></text><text font-size="6.773" style="fill:red;text-anchor:start;font-family:monospace;font-style:normal;font-weight:400" x="717.208" y="440"><tspan x="717.208" y="440">ACM</tspan></text><text font-size="6.773" style="fill:red;text-anchor:start;font-family:monospace;font-style:normal;font-weight:400" x="706.433" y="467"><tspan x="706.433" y="467">BOOTBLOCK</tspan> <tspan x="706.433" y="475.467">CODE</tspan></text><text font-size="6.773" style="fill:#0f0;text-anchor:start;font-family:monospace;font-style:normal;font-weight:400" x="714.183" y="424.25"><tspan x="714.183" y="424.25">uCode</tspan></text><line style="fill:none;fill-opacity:0;stroke-width:1;stroke:red" x1="655.186" x2="687.728" y1="327.119" y2="326.953"/><g><rect style="fill:#fff" width="60.208" height="10.5" x="694.683" y="377.45"/><rect style="fill:none;fill-opacity:0;stroke-width:1;stroke:#00f" width="60.208" height="10.5" x="694.683" y="377.45"/></g><g><rect style="fill:#fff" width="60.208" height="10.5" x="694.75" y="387.95"/><rect style="fill:none;fill-opacity:0;stroke-width:1;stroke:#00f" width="60.208" height="10.5" x="694.75" y="387.95"/></g><g><rect style="fill:#fff" width="60.208" height="10.5" x="694.683" y="398.4"/><rect style="fill:none;fill-opacity:0;stroke-width:1;stroke:#00f" width="60.208" height="10.5" x="694.683" y="398.4"/></g><text font-size="5.644" style="fill:#00f;text-anchor:start;font-family:monospace;font-style:normal;font-weight:400" x="706.433" y="406.25"><tspan x="706.433" y="406.25">FIT header</tspan></text><text font-size="5.644" style="fill:#00f;text-anchor:start;font-family:monospace;font-style:normal;font-weight:400" x="703.933" y="394.95"><tspan x="703.933" y="394.95">Type1 entry</tspan></text><text font-size="5.644" style="fill:#00f;text-anchor:start;font-family:monospace;font-style:normal;font-weight:400" x="703.933" y="384.7"><tspan x="703.933" y="384.7">Type2 entry</tspan></text><text font-size="5.644" style="fill:#00f;text-anchor:start;font-family:monospace;font-style:normal;font-weight:400" x="703.683" y="373.95"><tspan x="703.683" y="373.95">Type7 entry</tspan></text><g><path style="fill:none;fill-opacity:0;stroke-width:1;stroke:#90c9ff" d="M 769.4,417.215 A 13.2412,13.2412 0 0 0 763.208,391.5"/><polygon style="fill:#90c9ff" points="766.576 417.768 770.608 415.832 769.576 417.816 770.544 419.831"/><polygon style="fill:none;fill-opacity:0;stroke-width:1;stroke:#90c9ff" points="766.576 417.768 770.608 415.832 769.576 417.816 770.544 419.831"/></g><g><path style="fill:none;fill-opacity:0;stroke-width:1;stroke:#90c9ff" d="M 770.292,433.842 A 27.5949,27.5949 0 0 0 763.458,381.5"/><polygon style="fill:#90c9ff" points="767.533 434.943 770.831 431.923 770.418 434.12 771.929 435.769"/><polygon style="fill:none;fill-opacity:0;stroke-width:1;stroke:#90c9ff" points="767.533 434.943 770.831 431.923 770.418 434.12 771.929 435.769"/></g><g><path style="fill:none;fill-opacity:0;stroke-width:1;stroke:#90c9ff" d="M 772.011,446.947 A 41.791,41.791 0 0 0 763.458,372.5"/><polygon style="fill:#90c9ff" points="769.453 448.489 772.095 444.881 772.12 447.117 773.924 448.438"/><polygon style="fill:none;fill-opacity:0;stroke-width:1;stroke:#90c9ff" points="769.453 448.489 772.095 444.881 772.12 447.117 773.924 448.438"/></g><g><rect style="fill:#fff" width="68.5" height="4.25" x="691.268" y="493.5"/><rect style="fill:none;fill-opacity:0;stroke-width:2;stroke:#fff" width="68.5" height="4.25" x="691.268" y="493.5"/></g><path style="fill:none;fill-opacity:0;stroke-width:2;stroke:#000" d="M 689.768 510.25 C 714.502,510.25 736.534,494.5 761.268,494.5"/><line style="fill:none;fill-opacity:0;stroke-width:2;stroke:#000" x1="689.333" x2="689.018" y1="495.5" y2="509.25"/><line style="fill:none;fill-opacity:0;stroke-width:1;stroke-dasharray:4;stroke:#000" x1="683.343" x2="778.343" y1="430.9" y2="430.9"/><line style="fill:none;fill-opacity:0;stroke-width:1;stroke-dasharray:4;stroke:#000" x1="682.843" x2="777.843" y1="447.4" y2="447.4"/></svg>