<svg xmlns="http://www.w3.org/2000/svg" xmlns:xlink="http://www.w3.org/1999/xlink" width="4cm" height="3cm" viewBox="311 435 68 45"><g><g><rect style="fill:#fff" width="37.75" height="26.644" x="322.125" y="451.034"/><rect style="fill:none;fill-opacity:0;stroke-width:1;stroke:#000" width="37.75" height="26.644" x="322.125" y="451.034"/></g><line style="fill:none;fill-opacity:0;stroke-width:1;stroke:#000" x1="359.875" x2="368.527" y1="456.784" y2="456.784"/><text font-size="4.515" style="fill:#000;text-anchor:start;font-family:sans-serif;font-style:normal;font-weight:400" x="348.75" y="457.909"><tspan x="348.75" y="457.909">VCC</tspan></text><line style="fill:none;fill-opacity:0;stroke-width:1;stroke:#000" x1="359.763" x2="368.652" y1="461.772" y2="461.784"/><line style="fill:none;fill-opacity:0;stroke-width:1;stroke:#000" x1="360.138" x2="368.527" y1="466.872" y2="466.909"/><line style="fill:none;fill-opacity:0;stroke-width:1;stroke:#000" x1="360.277" x2="368.402" y1="471.534" y2="471.534"/><text font-size="4.515" style="fill:#000;text-anchor:start;font-family:sans-serif;font-style:normal;font-weight:400" x="345.752" y="463.247"><tspan x="345.752" y="463.247">HOLD</tspan></text><line style="fill:none;fill-opacity:0;stroke-width:.2;stroke:#000" x1="346.652" x2="358.402" y1="459.159" y2="459.159"/><text font-size="4.515" style="fill:#000;text-anchor:start;font-family:sans-serif;font-style:normal;font-weight:400" x="349.752" y="468.247"><tspan x="349.752" y="468.247">CLK</tspan></text><text font-size="4.515" style="fill:#000;text-anchor:start;font-family:sans-serif;font-style:normal;font-weight:400" x="353.502" y="472.997"><tspan x="353.502" y="472.997">DI</tspan></text><line style="fill:none;fill-opacity:0;stroke-width:1;stroke:#000" x1="313.49" x2="322.143" y1="456.922" y2="456.922"/><line style="fill:none;fill-opacity:0;stroke-width:1;stroke:#000" x1="313.378" x2="322.268" y1="461.909" y2="461.922"/><line style="fill:none;fill-opacity:0;stroke-width:1;stroke:#000" x1="313.753" x2="322.143" y1="467.009" y2="467.047"/><line style="fill:none;fill-opacity:0;stroke-width:1;stroke:#000" x1="313.893" x2="322.018" y1="471.672" y2="471.672"/><text font-size="4.515" style="fill:#000;text-anchor:start;font-family:sans-serif;font-style:normal;font-weight:400" x="323.752" y="458.372"><tspan x="323.752" y="458.372">CS</tspan></text><text font-size="4.515" style="fill:#000;text-anchor:start;font-family:sans-serif;font-style:normal;font-weight:400" x="324.127" y="468.497"><tspan x="324.127" y="468.497">WP</tspan></text><text font-size="4.515" style="fill:#000;text-anchor:start;font-family:sans-serif;font-style:normal;font-weight:400" x="323.752" y="472.997"><tspan x="323.752" y="472.997">GND</tspan></text><text font-size="4.515" style="fill:#000;text-anchor:start;font-family:sans-serif;font-style:normal;font-weight:400" x="324.127" y="463.497"><tspan x="324.127" y="463.497">DO</tspan></text><line style="fill:none;fill-opacity:0;stroke-width:.2;stroke:#000" x1="330.852" x2="323.902" y1="454.397" y2="454.409"/><line style="fill:none;fill-opacity:0;stroke-width:.2;stroke:#000" x1="330.802" x2="323.852" y1="464.397" y2="464.409"/></g><line style="fill:none;fill-opacity:0;stroke-width:1;stroke:#000" x1="368.252" x2="373.902" y1="456.797" y2="456.784"/><g><line style="fill:none;fill-opacity:0;stroke-width:1;stroke:#000" x1="374.027" x2="374.027" y1="456.784" y2="438.895"/><polyline style="fill:none;fill-opacity:0;stroke-width:1;stroke:#000" points="375.027 439.777 374.027 437.777 373.027 439.777"/></g><line style="fill:none;fill-opacity:0;stroke-width:1;stroke:#000" x1="314.277" x2="314.277" y1="471.784" y2="479.659"/><line style="fill:none;fill-opacity:0;stroke-width:1;stroke:#000" x1="317.027" x2="311.502" y1="479.659" y2="479.672"/><g><line style="fill:none;fill-opacity:0;stroke-width:1.2;stroke:#000" x1="374.027" x2="374.027" y1="443.284" y2="447.434"/><polygon style="fill:#000" points="372.027 447.434 374.027 451.434 376.027 447.434"/><polygon style="fill:none;fill-opacity:0;stroke-width:1.2;stroke:#000" points="372.027 447.434 374.027 451.434 376.027 447.434"/></g><line style="fill:none;fill-opacity:0;stroke-width:1.2;stroke:#000" x1="370.402" x2="377.527" y1="452.032" y2="452.032"/></svg>