<svg xmlns="http://www.w3.org/2000/svg" xmlns:xlink="http://www.w3.org/1999/xlink" width="4cm" height="3cm" viewBox="311 435 65 45"><g><g><rect style="fill:#fff" width="37.75" height="26.644" x="322.124" y="451.034"/><rect style="fill:none;fill-opacity:0;stroke-width:1;stroke:#000" width="37.75" height="26.644" x="322.124" y="451.034"/></g><line style="fill:none;fill-opacity:0;stroke-width:1;stroke:#000" x1="359.874" x2="368.528" y1="456.784" y2="456.784"/><text font-size="4.516" style="fill:#000;text-anchor:start;font-family:sans-serif;font-style:normal;font-weight:400" x="348.75" y="457.91"><tspan x="348.75" y="457.91">VCC</tspan></text><line style="fill:none;fill-opacity:0;stroke-width:1;stroke:#000" x1="359.762" x2="368.652" y1="461.772" y2="461.784"/><line style="fill:none;fill-opacity:0;stroke-width:1;stroke:#000" x1="360.138" x2="368.528" y1="466.872" y2="466.91"/><line style="fill:none;fill-opacity:0;stroke-width:1;stroke:#000" x1="360.278" x2="368.402" y1="471.534" y2="471.534"/><text font-size="4.516" style="fill:#000;text-anchor:start;font-family:sans-serif;font-style:normal;font-weight:400" x="345.752" y="463.246"><tspan x="345.752" y="463.246">HOLD</tspan></text><line style="fill:none;fill-opacity:0;stroke-width:.2;stroke:#000" x1="346.652" x2="358.402" y1="459.16" y2="459.16"/><text font-size="4.516" style="fill:#000;text-anchor:start;font-family:sans-serif;font-style:normal;font-weight:400" x="349.752" y="468.246"><tspan x="349.752" y="468.246">CLK</tspan></text><text font-size="4.516" style="fill:#000;text-anchor:start;font-family:sans-serif;font-style:normal;font-weight:400" x="353.502" y="472.996"><tspan x="353.502" y="472.996">DI</tspan></text><line style="fill:none;fill-opacity:0;stroke-width:1;stroke:#000" x1="313.49" x2="322.142" y1="456.922" y2="456.922"/><line style="fill:none;fill-opacity:0;stroke-width:1;stroke:#000" x1="313.378" x2="322.268" y1="461.91" y2="461.922"/><line style="fill:none;fill-opacity:0;stroke-width:1;stroke:#000" x1="313.752" x2="322.142" y1="467.01" y2="467.046"/><line style="fill:none;fill-opacity:0;stroke-width:1;stroke:#000" x1="313.892" x2="322.018" y1="471.672" y2="471.672"/><text font-size="4.516" style="fill:#000;text-anchor:start;font-family:sans-serif;font-style:normal;font-weight:400" x="323.752" y="458.372"><tspan x="323.752" y="458.372">CS</tspan></text><text font-size="4.516" style="fill:#000;text-anchor:start;font-family:sans-serif;font-style:normal;font-weight:400" x="324.128" y="468.496"><tspan x="324.128" y="468.496">WP</tspan></text><text font-size="4.516" style="fill:#000;text-anchor:start;font-family:sans-serif;font-style:normal;font-weight:400" x="323.752" y="472.996"><tspan x="323.752" y="472.996">GND</tspan></text><text font-size="4.516" style="fill:#000;text-anchor:start;font-family:sans-serif;font-style:normal;font-weight:400" x="324.128" y="463.496"><tspan x="324.128" y="463.496">DO</tspan></text><line style="fill:none;fill-opacity:0;stroke-width:.2;stroke:#000" x1="330.852" x2="323.902" y1="454.396" y2="454.41"/><line style="fill:none;fill-opacity:0;stroke-width:.2;stroke:#000" x1="330.802" x2="323.852" y1="464.396" y2="464.41"/></g><line style="fill:none;fill-opacity:0;stroke-width:1;stroke:#000" x1="368.252" x2="373.902" y1="456.796" y2="456.784"/><g><line style="fill:none;fill-opacity:0;stroke-width:1;stroke:#000" x1="374.028" x2="374.028" y1="456.784" y2="438.896"/><polyline style="fill:none;fill-opacity:0;stroke-width:1;stroke:#000" points="375.028 439.778 374.028 437.778 373.028 439.778"/></g><line style="fill:none;fill-opacity:0;stroke-width:1;stroke:#000" x1="314.278" x2="314.278" y1="471.784" y2="479.66"/><line style="fill:none;fill-opacity:0;stroke-width:1;stroke:#000" x1="317.028" x2="311.502" y1="479.66" y2="479.672"/></svg>