<svg xmlns="http://www.w3.org/2000/svg" xmlns:svg="http://www.w3.org/2000/svg" id="svg5" width="152.187" height="76.601" version="1.1" viewBox="0 0 40.266 20.267"><g id="layer1" transform="translate(0.1322915,0.1322915)"><path style="fill:none;stroke:#000;stroke-width:.264583" id="path500" d="M 0,0 C 0,6.6676027 0,13.335205 0,20.002808"/><path style="fill:none;stroke:#000;stroke-width:.264583" id="path506" d="m 0,20.002808 c 13.333889,0 26.667777,0 40.001666,0 0,-6.667603 0,-13.3352053 0,-20.002808 -6.665673,0 -13.331347,0 -19.99702,0 0,6.6676027 0,13.335205 0,20.002808"/><path style="fill:none;stroke:#000;stroke-width:.264583" id="path508" d="m 0,0 c 3.3327445,0 6.6654889,0 9.9982334,0 0,6.6676027 0,13.335205 0,20.002808"/><path style="fill:none;stroke:#000;stroke-width:.264583" id="path510" d="m 0,10.001404 c 13.333889,0 26.667777,0 40.001666,0"/><path style="fill:none;stroke:#000;stroke-width:.264583" id="path512" d="m 30.003154,0 c 0,6.6676027 0,13.335205 0,20.002808"/><text id="text676" x="22.156" y="6.311" font-size="2.822" xml:space="preserve" style="fill:#000;text-anchor:start;font-family:sans-serif;font-style:normal;font-weight:400"><tspan x="22.156" y="6.311">VCC</tspan></text><text id="text730" x="31.973" y="6.311" font-size="2.822" xml:space="preserve" style="fill:#000;text-anchor:start;font-family:sans-serif;font-style:normal;font-weight:400"><tspan id="tspan728" x="31.973" y="6.311">GND</tspan></text><text id="text734" x="32.399" y="16.285" font-size="2.822" xml:space="preserve" style="fill:#000;text-anchor:start;font-family:sans-serif;font-style:normal;font-weight:400"><tspan id="tspan732" x="32.399" y="16.285">CLK</tspan></text><text id="text738" x="22.77" y="16.285" font-size="2.822" xml:space="preserve" style="fill:#000;text-anchor:start;font-family:sans-serif;font-style:normal;font-weight:400"><tspan id="tspan736" x="22.77" y="16.285">DO</tspan></text><text id="text742" x="13.605" y="16.287" font-size="2.822" xml:space="preserve" style="fill:#000;text-anchor:start;font-family:sans-serif;font-style:normal;font-weight:400"><tspan id="tspan740" x="13.605" y="16.287">DI</tspan></text><text id="text746" x="2.52" y="6.2" font-size="2.822" xml:space="preserve" style="fill:#000;text-anchor:start;font-family:sans-serif;font-style:normal;font-weight:400"><tspan id="tspan744" x="2.52" y="6.2">/CS</tspan></text><text id="text750" x="5.032" y="14.501" font-size="2.5" xml:space="preserve" style="fill:#000;text-anchor:middle;font-family:sans-serif;font-style:normal;font-weight:400"><tspan id="tspan748" x="5.032" y="14.501">/CS</tspan><tspan id="tspan752" x="5.032" y="17.146">chipset</tspan></text></g></svg>