<svg xmlns="http://www.w3.org/2000/svg" xmlns:xlink="http://www.w3.org/1999/xlink" width="949" height="401" contentStyleType="text/css" preserveAspectRatio="none" style="width:949px;height:401px;background:#fff" version="1.1" viewBox="0 0 949 401" zoomAndPan="magnify"><g><g id="elem_gcc"><rect width="187" height="83.2" x="48.5" fill="#F1F1F1" style="stroke:#181818;stroke-width:.5" y="17"/><text x="55.5" y="32.006" fill="#000" font-family="sans-serif" font-size="14" lengthAdjust="spacing" textLength="173">src/sbom/compiler-gcc.json</text><line style="stroke:#181818;stroke-width:1" x1="48.5" x2="235.5" y1="37.8" y2="37.8"/><text x="53.5" y="52.806" fill="#000" font-family="sans-serif" font-size="14" lengthAdjust="spacing" textLength="95">software-name</text><text x="158.5" y="52.806" fill="#000" font-family="sans-serif" font-size="14" lengthAdjust="spacing" textLength="31">GCC</text><line style="stroke:#181818;stroke-width:1" x1="153.5" x2="153.5" y1="37.8" y2="58.6"/><line style="stroke:#181818;stroke-width:1" x1="48.5" x2="235.5" y1="58.6" y2="58.6"/><text x="78" y="73.606" fill="#000" font-family="sans-serif" font-size="14" lengthAdjust="spacing" textLength="46">version</text><text x="158.5" y="73.606" fill="#000" font-family="sans-serif" font-size="14" lengthAdjust="spacing" textLength="29">x.y.z</text><line style="stroke:#181818;stroke-width:1" x1="153.5" x2="153.5" y1="58.6" y2="79.4"/><line style="stroke:#181818;stroke-width:1" x1="48.5" x2="235.5" y1="79.4" y2="79.4"/><text x="95" y="94.406" fill="#000" font-family="sans-serif" font-size="14" lengthAdjust="spacing" textLength="12">...</text><text x="158.5" y="94.406" fill="#000" font-family="sans-serif" font-size="14" lengthAdjust="spacing" textLength="12">...</text><line style="stroke:#181818;stroke-width:1" x1="153.5" x2="153.5" y1="79.4" y2="100.2"/></g><g id="elem_me"><rect width="270" height="62.4" x="7" fill="#F1F1F1" style="stroke:#181818;stroke-width:.5" y="140"/><text x="70.5" y="155.006" fill="#000" font-family="sans-serif" font-size="14" lengthAdjust="spacing" textLength="143">src/sbom/intel-me.json</text><line style="stroke:#181818;stroke-width:1" x1="7" x2="277" y1="160.8" y2="160.8"/><text x="12" y="175.806" fill="#000" font-family="sans-serif" font-size="14" lengthAdjust="spacing" textLength="95">software-name</text><text x="117" y="175.806" fill="#000" font-family="sans-serif" font-size="14" lengthAdjust="spacing" textLength="155">Intel Mangement Engine</text><line style="stroke:#181818;stroke-width:1" x1="112" x2="112" y1="160.8" y2="181.6"/><line style="stroke:#181818;stroke-width:1" x1="7" x2="277" y1="181.6" y2="181.6"/><text x="53.5" y="196.606" fill="#000" font-family="sans-serif" font-size="14" lengthAdjust="spacing" textLength="12">...</text><text x="117" y="196.606" fill="#000" font-family="sans-serif" font-size="14" lengthAdjust="spacing" textLength="12">...</text><line style="stroke:#181818;stroke-width:1" x1="112" x2="112" y1="181.6" y2="202.4"/></g><g id="elem_ucode"><rect width="212" height="62.4" x="36" fill="#F1F1F1" style="stroke:#181818;stroke-width:.5" y="243"/><text x="47.5" y="258.006" fill="#000" font-family="sans-serif" font-size="14" lengthAdjust="spacing" textLength="189">src/sbom/intel-microcode.json</text><line style="stroke:#181818;stroke-width:1" x1="36" x2="248" y1="263.8" y2="263.8"/><text x="41" y="278.806" fill="#000" font-family="sans-serif" font-size="14" lengthAdjust="spacing" textLength="95">software-name</text><text x="146" y="278.806" fill="#000" font-family="sans-serif" font-size="14" lengthAdjust="spacing" textLength="97">Intel Microcode</text><line style="stroke:#181818;stroke-width:1" x1="141" x2="141" y1="263.8" y2="284.6"/><line style="stroke:#181818;stroke-width:1" x1="36" x2="248" y1="284.6" y2="284.6"/><text x="82.5" y="299.606" fill="#000" font-family="sans-serif" font-size="14" lengthAdjust="spacing" textLength="12">...</text><text x="146" y="299.606" fill="#000" font-family="sans-serif" font-size="14" lengthAdjust="spacing" textLength="12">...</text><line style="stroke:#181818;stroke-width:1" x1="141" x2="141" y1="284.6" y2="305.4"/></g><g id="elem_ec"><rect width="173" height="62.4" x="711.5" fill="#F1F1F1" style="stroke:#181818;stroke-width:.5" y="27"/><text x="718.5" y="42.006" fill="#000" font-family="sans-serif" font-size="14" lengthAdjust="spacing" textLength="159">src/sbom/generic-ec.json</text><line style="stroke:#181818;stroke-width:1" x1="711.5" x2="884.5" y1="47.8" y2="47.8"/><text x="716.5" y="62.806" fill="#000" font-family="sans-serif" font-size="14" lengthAdjust="spacing" textLength="95">software-name</text><text x="821.5" y="62.806" fill="#000" font-family="sans-serif" font-size="14" lengthAdjust="spacing" textLength="36">ecxyz</text><line style="stroke:#181818;stroke-width:1" x1="816.5" x2="816.5" y1="47.8" y2="68.6"/><line style="stroke:#181818;stroke-width:1" x1="711.5" x2="884.5" y1="68.6" y2="68.6"/><text x="758" y="83.606" fill="#000" font-family="sans-serif" font-size="14" lengthAdjust="spacing" textLength="12">...</text><text x="821.5" y="83.606" fill="#000" font-family="sans-serif" font-size="14" lengthAdjust="spacing" textLength="12">...</text><line style="stroke:#181818;stroke-width:1" x1="816.5" x2="816.5" y1="68.6" y2="89.4"/></g><g id="elem_fsp"><rect width="288" height="83.2" x="654" fill="#F1F1F1" style="stroke:#181818;stroke-width:.5" y="130"/><text x="716.5" y="145.006" fill="#000" font-family="sans-serif" font-size="14" lengthAdjust="spacing" textLength="163">src/sbom/generic-fsp.json</text><line style="stroke:#181818;stroke-width:1" x1="654" x2="942" y1="150.8" y2="150.8"/><text x="659" y="165.806" fill="#000" font-family="sans-serif" font-size="14" lengthAdjust="spacing" textLength="95">software-name</text><text x="764" y="165.806" fill="#000" font-family="sans-serif" font-size="14" lengthAdjust="spacing" textLength="173">Firmware Support Package</text><line style="stroke:#181818;stroke-width:1" x1="759" x2="759" y1="150.8" y2="171.6"/><line style="stroke:#181818;stroke-width:1" x1="654" x2="942" y1="171.6" y2="171.6"/><text x="683.5" y="186.606" fill="#000" font-family="sans-serif" font-size="14" lengthAdjust="spacing" textLength="46">version</text><text x="764" y="186.606" fill="#000" font-family="sans-serif" font-size="14" lengthAdjust="spacing" textLength="29">x.y.z</text><line style="stroke:#181818;stroke-width:1" x1="759" x2="759" y1="171.6" y2="192.4"/><line style="stroke:#181818;stroke-width:1" x1="654" x2="942" y1="192.4" y2="192.4"/><text x="700.5" y="207.406" fill="#000" font-family="sans-serif" font-size="14" lengthAdjust="spacing" textLength="12">...</text><text x="764" y="207.406" fill="#000" font-family="sans-serif" font-size="14" lengthAdjust="spacing" textLength="12">...</text><line style="stroke:#181818;stroke-width:1" x1="759" x2="759" y1="192.4" y2="213.2"/></g><g id="elem_payload"><rect width="181" height="83.2" x="707.5" fill="#F1F1F1" style="stroke:#181818;stroke-width:.5" y="253"/><text x="714.5" y="268.006" fill="#000" font-family="sans-serif" font-size="14" lengthAdjust="spacing" textLength="167">src/sbom/payload-[...].json</text><line style="stroke:#181818;stroke-width:1" x1="707.5" x2="888.5" y1="273.8" y2="273.8"/><text x="712.5" y="288.806" fill="#000" font-family="sans-serif" font-size="14" lengthAdjust="spacing" textLength="95">software-name</text><text x="817.5" y="288.806" fill="#000" font-family="sans-serif" font-size="14" lengthAdjust="spacing" textLength="12">...</text><line style="stroke:#181818;stroke-width:1" x1="812.5" x2="812.5" y1="273.8" y2="294.6"/><line style="stroke:#181818;stroke-width:1" x1="707.5" x2="888.5" y1="294.6" y2="294.6"/><text x="737" y="309.606" fill="#000" font-family="sans-serif" font-size="14" lengthAdjust="spacing" textLength="46">version</text><text x="817.5" y="309.606" fill="#000" font-family="sans-serif" font-size="14" lengthAdjust="spacing" textLength="29">x.y.z</text><line style="stroke:#181818;stroke-width:1" x1="812.5" x2="812.5" y1="294.6" y2="315.4"/><line style="stroke:#181818;stroke-width:1" x1="707.5" x2="888.5" y1="315.4" y2="315.4"/><text x="754" y="330.406" fill="#000" font-family="sans-serif" font-size="14" lengthAdjust="spacing" textLength="12">...</text><text x="817.5" y="330.406" fill="#000" font-family="sans-serif" font-size="14" lengthAdjust="spacing" textLength="12">...</text><line style="stroke:#181818;stroke-width:1" x1="812.5" x2="812.5" y1="315.4" y2="336.2"/></g><g id="elem_coreboot"><rect width="209" height="104" x="361" fill="#F1F1F1" style="stroke:#181818;stroke-width:.5" y="291"/><text x="391.5" y="306.006" fill="#000" font-family="sans-serif" font-size="14" lengthAdjust="spacing" textLength="148">src/sbom/coreboot.json</text><line style="stroke:#181818;stroke-width:1" x1="361" x2="570" y1="311.8" y2="311.8"/><text x="366" y="326.806" fill="#000" font-family="sans-serif" font-size="14" lengthAdjust="spacing" textLength="95">software-name</text><text x="471" y="326.806" fill="#000" font-family="sans-serif" font-size="14" lengthAdjust="spacing" textLength="56">coreboot</text><line style="stroke:#181818;stroke-width:1" x1="466" x2="466" y1="311.8" y2="332.6"/><line style="stroke:#181818;stroke-width:1" x1="361" x2="570" y1="332.6" y2="332.6"/><text x="390.5" y="347.606" fill="#000" font-family="sans-serif" font-size="14" lengthAdjust="spacing" textLength="46">version</text><text x="471" y="347.606" fill="#000" font-family="sans-serif" font-size="14" lengthAdjust="spacing" textLength="29">x.y.z</text><line style="stroke:#181818;stroke-width:1" x1="466" x2="466" y1="332.6" y2="353.4"/><line style="stroke:#181818;stroke-width:1" x1="361" x2="570" y1="353.4" y2="353.4"/><text x="405.5" y="368.406" fill="#000" font-family="sans-serif" font-size="14" lengthAdjust="spacing" textLength="16">url</text><text x="471" y="368.406" fill="#000" font-family="sans-serif" font-size="14" lengthAdjust="spacing" textLength="94">coreboot.rocks</text><line style="stroke:#181818;stroke-width:1" x1="466" x2="466" y1="353.4" y2="374.2"/><line style="stroke:#181818;stroke-width:1" x1="361" x2="570" y1="374.2" y2="374.2"/><text x="407.5" y="389.206" fill="#000" font-family="sans-serif" font-size="14" lengthAdjust="spacing" textLength="12">...</text><text x="471" y="389.206" fill="#000" font-family="sans-serif" font-size="14" lengthAdjust="spacing" textLength="12">...</text><line style="stroke:#181818;stroke-width:1" x1="466" x2="466" y1="374.2" y2="395"/></g><g id="elem_uswid"><rect width="241" height="45.6" x="345" fill="#F1F1F1" style="stroke:#181818;stroke-width:.5" y="7"/><text x="428" y="22.006" fill="#000" font-family="sans-serif" font-size="14" lengthAdjust="spacing" textLength="75">sbom.uswid</text><line style="stroke:#181818;stroke-width:.5" x1="346" x2="585" y1="27.8" y2="27.8"/><text x="351" y="44.806" fill="#000" font-family="sans-serif" font-size="14" lengthAdjust="spacing" textLength="229">merged SBOM data in binary format</text></g><g id="elem_goswid"><rect width="225" height="163.199" x="353" fill="#F1F1F1" style="stroke:#181818;stroke-width:.5" y="88.5"/><text x="443.5" y="103.506" fill="#000" font-family="sans-serif" font-size="14" lengthAdjust="spacing" textLength="44">goswid</text><line style="stroke:#181818;stroke-width:.5" x1="354" x2="577" y1="109.3" y2="109.3"/><polygon fill="none" points="364 118.2 368 122.2 364 126.2 360 122.2" style="stroke:#b38d22;stroke-width:1"/><text x="373" y="126.306" fill="#000" font-family="sans-serif" font-size="14" lengthAdjust="spacing" textLength="52">./goswid</text><text x="373" y="143.106" fill="#000" font-family="sans-serif" font-size="14" lengthAdjust="spacing" textLength="120">--compiler gcc.json</text><text x="373" y="159.906" fill="#000" font-family="sans-serif" font-size="14" lengthAdjust="spacing" textLength="141">--parent coreboot.json</text><text x="373" y="176.706" fill="#000" font-family="sans-serif" font-size="14" lengthAdjust="spacing" textLength="199">--requires fsp.json,payload.json</text><text x="373" y="193.506" fill="#000" font-family="sans-serif" font-size="14" lengthAdjust="spacing" textLength="81">intel-me.json</text><text x="373" y="210.305" fill="#000" font-family="sans-serif" font-size="14" lengthAdjust="spacing" textLength="76">intel-ec.json</text><text x="373" y="227.105" fill="#000" font-family="sans-serif" font-size="14" lengthAdjust="spacing" textLength="100">intel-ucode.json</text><text x="373" y="243.905" fill="#000" font-family="sans-serif" font-size="14" lengthAdjust="spacing" textLength="129">--output sbom.uswid</text></g><g id="link_gcc_goswid"><path id="gcc-to-goswid" fill="none" d="M243.4,92.29 C276.15,103.8 312.8,116.68 346.7,128.6" codeLine="50" style="stroke:#181818;stroke-width:1"/><polygon fill="#181818" points="351.12 130.15 343.956 123.392 346.403 128.492 341.303 130.939 351.12 130.15" style="stroke:#181818;stroke-width:1"/></g><g id="link_me_goswid"><path id="me-to-goswid" fill="none" d="M284.95,170 C305.44,170 326.35,170 346.31,170" codeLine="51" style="stroke:#181818;stroke-width:1"/><polygon fill="#181818" points="351.24 170 342.24 166 346.24 170 342.24 174 351.24 170" style="stroke:#181818;stroke-width:1"/></g><g id="link_ucode_goswid"><path id="ucode-to-goswid" fill="none" d="M248.72,239.13 C280.07,229.09 314.61,218.02 346.68,207.75" codeLine="52" style="stroke:#181818;stroke-width:1"/><polygon fill="#181818" points="351.2 206.3 341.408 205.245 346.44 207.83 343.855 212.862 351.2 206.3" style="stroke:#181818;stroke-width:1"/></g><g id="link_goswid_ec"><path id="goswid-backto-ec" fill="none" d="M584.54,129.1 C605.02,122.04 626.12,114.79 646,108 C664.59,101.65 684.48,94.9 703.53,88.46" codeLine="53" style="stroke:#181818;stroke-width:1"/><polygon fill="#181818" points="579.92 130.69 589.732 131.541 584.648 129.062 587.127 123.977 579.92 130.69" style="stroke:#181818;stroke-width:1"/></g><g id="link_goswid_fsp"><path id="goswid-backto-fsp" fill="none" d="M584.82,170 C604.74,170 625.65,170 646.25,170" codeLine="54" style="stroke:#181818;stroke-width:1"/><polygon fill="#181818" points="579.91 170 588.91 174 584.91 170 588.91 166 579.91 170" style="stroke:#181818;stroke-width:1"/></g><g id="link_goswid_payload"><path id="goswid-backto-payload" fill="none" d="M584.42,213.88 C622.16,227.93 663.49,243.31 699.6,256.75" codeLine="55" style="stroke:#181818;stroke-width:1"/><polygon fill="#181818" points="579.81 212.17 586.851 219.057 584.496 213.913 589.64 211.559 579.81 212.17" style="stroke:#181818;stroke-width:1"/></g><g id="link_goswid_coreboot"><path id="goswid-backto-coreboot" fill="none" d="M465.5,258.3 C465.5,267.95 465.5,277.59 465.5,287.23" codeLine="57" style="stroke:#181818;stroke-width:1"/><polygon fill="#181818" points="465.5 253.48 461.5 262.48 465.5 258.48 469.5 262.48 465.5 253.48" style="stroke:#181818;stroke-width:1"/></g><g id="link_uswid_goswid"><path id="uswid-backto-goswid" fill="none" d="M465.5,59.5 C465.5,69.08 465.5,78.66 465.5,88.24" codeLine="58" style="stroke:#181818;stroke-width:1"/><polygon fill="#181818" points="465.5 54.72 461.5 63.72 465.5 59.72 469.5 63.72 465.5 54.72" style="stroke:#181818;stroke-width:1"/></g></g></svg>