<svg xmlns="http://www.w3.org/2000/svg" xmlns:ev="http://www.w3.org/2001/xml-events" xmlns:xlink="http://www.w3.org/1999/xlink" width="221.357" height="197.758" class="st11" color-interpolation-filters="sRGB" viewBox="0 0 166.017 148.318" xml:space="preserve"><style type="text/css">.st1{fill:#fff;stroke:#000;stroke-linecap:round;stroke-linejoin:round;stroke-width:.24}.st2{fill:#000;font-family:Calibri;font-size:.333344em}.st3{fill:#ffc000;stroke:#000;stroke-linecap:round;stroke-linejoin:round;stroke-width:.24}.st4{fill:#000;font-family:Calibri;font-size:.499992em}.st5{fill:#a5a5a5;stroke:#000;stroke-width:.24}.st5,.st6,.st7,.st8{stroke-linecap:round;stroke-linejoin:round}.st6{fill:#a5a5a5;stroke:#000;stroke-width:1}.st7,.st8{stroke-width:.75}.st7{fill:none;stroke:none}.st8{stroke:#4bacc6}.st9{fill:#000;font-family:Calibri;font-size:.416656em}.st10{font-size:1em}.st11{fill:none;fill-rule:evenodd;font-size:12px;overflow:visible;stroke-linecap:square;stroke-miterlimit:3}</style><g><title>Page-1</title><g id="shape87-1" transform="translate(35.2486,-139.932)"><title>Rectangle.178</title><desc>DESC</desc><rect width="79.37" height="4.535" x="0" y="143.783" class="st1"/><text x="35.49" y="147.25" class="st2">DESC</text></g><g id="shape88-4" transform="translate(35.2486,-122.945)"><title>Rectangle.179</title><desc>CSME/PMC</desc><rect width="79.37" height="16.703" x="0" y="131.615" class="st3"/><text x="25.8" y="141.02" class="st4">CSME/PMC</text></g><g id="shape89-7" transform="translate(35.0263,-4.54823)"><title>Rectangle.180</title><rect width="79.592" height="118.421" x="0" y="29.897" class="st1"/></g><g id="shape90-9" transform="translate(37.7169,-5.80807)"><title>Rectangle.181</title><desc>COREBOOT_RO</desc><rect width="74.358" height="28.346" x="0" y="119.972" class="st5"/><text x="18.32" y="135.95" class="st4">COREBOOT_RO</text></g><g id="shape91-12" transform="translate(37.7169,-34.1545)"><title>Rectangle.182</title><desc>RW_MISC</desc><rect width="74.358" height="4.411" x="0" y="143.907" class="st5"/><text x="29.12" y="147.31" class="st2">RW_MISC</text></g><g id="shape92-15" transform="translate(37.7169,-38.7215)"><title>Rectangle.183</title><desc>FW_MAIN_B</desc><rect width="74.358" height="28.346" x="0" y="119.972" class="st6"/><text x="21.52" y="129.37" class="st4">FW_MAIN_B</text></g><g id="shape93-18" transform="translate(37.7169,-67.0679)"><title>Rectangle.184</title><desc>FW_MAIN_A</desc><rect width="74.358" height="28.346" x="0" y="119.972" class="st6"/><text x="21.41" y="129.37" class="st4">FW_MAIN_A</text></g><g id="shape94-21" transform="translate(0.375,-0.375)"><title>Sheet.94</title><desc>0x1FFFFFF</desc><rect width="41.401" height="10.63" x="0" y="137.688" class="st7"/><text x="8.09" y="144.8" class="st4">0x1FFFFFF</text></g><g id="shape95-24" transform="translate(18.2407,-138.564)"><title>Sheet.95</title><desc>0x0</desc><rect width="21.26" height="9.379" x="0" y="138.939" class="st7"/><text x="6.29" y="145.43" class="st4">0x0</text></g><g id="shape106-27" transform="translate(37.7546,-96.0443)"><title>Rectangle.106</title><desc>RW_LEGACY</desc><rect width="74.358" height="25.871" x="0" y="122.448" class="st5"/><text x="27.04" y="136.58" class="st2">RW_LEGACY</text></g><g id="shape113-30" transform="translate(115.744,-6.75295)"><title>Right Brace.398</title><path d="M-0 148.32 A9.42279 2.96575 -180 0 0 5.11 146.6 L5.11 135.46 L10.21 135.46 L5.11 135.46 L5.11 124.32 A9.42279 2.96575 -180 0 0 0 122.6" class="st8"/></g><g id="shape96-33" transform="translate(117.453,-10.2963)"><title>Sheet.96</title><desc>HW WP</desc><rect width="31.181" height="10.63" x="0" y="137.688" class="st7"/><text x="6.16" y="144.8" class="st4">HW WP</text></g><g id="shape115-36" transform="translate(116.508,-123.131)"><title>Right Brace.115</title><path d="M0 148.32 A10.4615 2.27029 -180 0 0 5.67 147.01 L5.67 138.48 L11.34 138.48 L5.67 138.48 L5.67 129.95 A10.4615 2.27029 -180 0 0 0 128.63" class="st8"/></g><g id="shape97-39" transform="translate(120.288,-122.265)"><title>Sheet.97</title><desc>SPI Controller WP via descriptor</desc><rect width="45.354" height="23.386" x="0" y="124.932" class="st7"/><text x="4.71" y="135.13" class="st9">SPI Controller WP <tspan x="8.83" class="st10" dy="1.2em">via descriptor</tspan></text></g></g></svg>