<svg xmlns="http://www.w3.org/2000/svg" xmlns:xlink="http://www.w3.org/1999/xlink" width="16cm" height="36cm" viewBox="522 318 306 714"><g><rect style="fill:#fff" width="296.25" height="201.75" x="523.768" y="829.25"/><rect style="fill:none;fill-opacity:0;stroke-width:2;stroke:#fff" width="296.25" height="201.75" x="523.768" y="829.25"/></g><g><rect style="fill:#fff" width="72.375" height="269.168" x="689.334" y="321.666"/><rect style="fill:none;fill-opacity:0;stroke-width:2;stroke:#000" width="72.375" height="269.168" x="689.334" y="321.666"/></g><line style="fill:none;fill-opacity:0;stroke-width:1;stroke-dasharray:4;stroke:#000" x1="686.166" x2="781.166" y1="352" y2="352"/><line style="fill:none;fill-opacity:0;stroke-width:1;stroke-dasharray:4;stroke:#000" x1="685.8" x2="780.8" y1="334.434" y2="334.434"/><line style="fill:none;fill-opacity:0;stroke-width:1;stroke-dasharray:4;stroke:#000" x1="682.8" x2="777.8" y1="410.934" y2="410.934"/><g><path style="fill:none;fill-opacity:0;stroke-width:1;stroke:#00f" d="M 684.5,342.584 A 30.4704,30.4704 0 0 0 676.673,403.011"/><polygon style="fill:#00f" points="679.632 403.321 675.608 405.273 676.632 403.285 675.656 401.273"/><polygon style="fill:none;fill-opacity:0;stroke-width:1;stroke:#00f" points="679.632 403.321 675.608 405.273 676.632 403.285 675.656 401.273"/></g><g><rect style="fill:#fff" width="60.208" height="10.5" x="694.75" y="367"/><rect style="fill:none;fill-opacity:0;stroke-width:1;stroke:#00f" width="60.208" height="10.5" x="694.75" y="367"/></g><text font-size="5.644" style="fill:#000;text-anchor:start;font-family:sans-serif;font-style:normal;font-weight:400" x="653" y="323.334"><tspan x="653" y="323.334">4 GiB</tspan></text><text font-size="7.902" style="fill:#00f;text-anchor:start;font-family:monospace;font-style:normal;font-weight:400" x="707.958" y="348.25"><tspan x="707.958" y="348.25">FIT Ptr</tspan></text><text font-size="7.902" style="fill:red;text-anchor:start;font-family:monospace;font-style:normal;font-weight:400" x="692.934" y="330.55"><tspan x="692.934" y="330.55">IA32 reset vec</tspan></text><g><rect style="fill:#fff" width="60.208" height="41.533" x="694.684" y="415.25"/><rect style="fill:none;fill-opacity:0;stroke-width:1;stroke:red" width="60.208" height="41.533" x="694.684" y="415.25"/></g><g><path style="fill:none;fill-opacity:0;stroke-width:1;stroke:red" d="M 654.458,327 A 65.5176,65.5176 0 0 0 675.175,449.031"/><polygon style="fill:red" points="678.138 449.469 673.953 451.045 675.154 449.159 674.366 447.066"/><polygon style="fill:none;fill-opacity:0;stroke-width:1;stroke:red" points="678.138 449.469 673.953 451.045 675.154 449.159 674.366 447.066"/></g><g><rect style="fill:#fff" width="60.208" height="28.747" x="694.934" y="462.5"/><rect style="fill:none;fill-opacity:0;stroke-width:1;stroke:red" width="60.208" height="28.747" x="694.934" y="462.5"/></g><g><rect style="fill:#fff" width="60.208" height="12.134" x="695.434" y="518.45"/><rect style="fill:none;fill-opacity:0;stroke-width:1;stroke:#0f0" width="60.208" height="12.134" x="695.434" y="518.45"/></g><text font-size="6.773" style="fill:red;text-anchor:start;font-family:monospace;font-style:normal;font-weight:400" x="708.208" y="479.25"><tspan x="708.208" y="479.25">BIOS ACM</tspan></text><text font-size="6.773" style="fill:red;text-anchor:start;font-family:monospace;font-style:normal;font-weight:400" x="707.184" y="432.25"><tspan x="707.184" y="432.25">BOOTBLOCK</tspan> <tspan x="707.184" y="440.717">CODE</tspan></text><text font-size="6.773" style="fill:#0f0;text-anchor:start;font-family:monospace;font-style:normal;font-weight:400" x="714.934" y="527"><tspan x="714.934" y="527">uCode</tspan></text><line style="fill:none;fill-opacity:0;stroke-width:1;stroke:red" x1="655.186" x2="687.728" y1="327.12" y2="326.952"/><g><rect style="fill:#fff" width="60.208" height="10.5" x="694.684" y="377.45"/><rect style="fill:none;fill-opacity:0;stroke-width:1;stroke:#00f" width="60.208" height="10.5" x="694.684" y="377.45"/></g><g><rect style="fill:#fff" width="60.208" height="10.5" x="694.75" y="387.95"/><rect style="fill:none;fill-opacity:0;stroke-width:1;stroke:#00f" width="60.208" height="10.5" x="694.75" y="387.95"/></g><g><rect style="fill:#fff" width="60.208" height="10.5" x="694.684" y="398.4"/><rect style="fill:none;fill-opacity:0;stroke-width:1;stroke:#00f" width="60.208" height="10.5" x="694.684" y="398.4"/></g><g><rect style="fill:#fff" width="68.5" height="4.25" x="691.018" y="588.75"/><rect style="fill:none;fill-opacity:0;stroke-width:2;stroke:#fff" width="68.5" height="4.25" x="691.018" y="588.75"/></g><line style="fill:none;fill-opacity:0;stroke-width:2;stroke:#000" x1="689.334" x2="689.018" y1="590.834" y2="509.25"/><line style="fill:none;fill-opacity:0;stroke-width:1;stroke-dasharray:4;stroke:#000" x1="683.092" x2="778.092" y1="493.9" y2="493.9"/><line style="fill:none;fill-opacity:0;stroke-width:1;stroke-dasharray:4;stroke:#000" x1="682.592" x2="777.592" y1="459.4" y2="459.4"/><g><rect style="fill:#fff" width="60.208" height="12.134" x="695.776" y="533.91"/><rect style="fill:none;fill-opacity:0;stroke-width:1;stroke:#0f0" width="60.208" height="12.134" x="695.776" y="533.91"/></g><text font-size="6.773" style="fill:#0f0;text-anchor:start;font-family:monospace;font-style:normal;font-weight:400" x="714.026" y="542.21"><tspan x="714.026" y="542.21">uCode</tspan></text><g><rect style="fill:#fff" width="60.208" height="15.675" x="695.276" y="497.072"/><rect style="fill:none;fill-opacity:0;stroke-width:1;stroke:red" width="60.208" height="15.675" x="695.276" y="497.072"/></g><g><rect style="fill:#fff" width="60.208" height="15.348" x="695.776" y="551.072"/><rect style="fill:none;fill-opacity:0;stroke-width:1;stroke:red" width="60.208" height="15.348" x="695.776" y="551.072"/></g><text font-size="6.773" style="fill:red;text-anchor:start;font-family:monospace;font-style:normal;font-weight:400" x="705.1" y="506.148"><tspan x="705.1" y="506.148">verstage</tspan></text><text font-size="6.773" style="fill:red;text-anchor:start;font-family:monospace;font-style:normal;font-weight:400" x="719.35" y="561.32"><tspan x="719.35" y="561.32">FSP</tspan></text><line style="fill:none;fill-opacity:0;stroke-width:1;stroke-dasharray:4;stroke:#000" x1="682.1" x2="777.1" y1="515.408" y2="515.408"/><line style="fill:none;fill-opacity:0;stroke-width:1;stroke-dasharray:4;stroke:#000" x1="682.85" x2="777.85" y1="548.738" y2="548.738"/><line style="fill:none;fill-opacity:0;stroke-width:2;stroke:#ff8484" x1="789.75" x2="789.75" y1="322.584" y2="458.408"/><line style="fill:none;fill-opacity:0;stroke-width:2;stroke:#ff8484" x1="789.5" x2="783" y1="457.908" y2="457.908"/><line style="fill:none;fill-opacity:0;stroke-width:2;stroke:#ff8484" x1="789.6" x2="783.1" y1="322.508" y2="322.508"/><line style="fill:none;fill-opacity:0;stroke-width:2;stroke:#ff8484" x1="789.75" x2="790.1" y1="493.226" y2="513.834"/><line style="fill:none;fill-opacity:0;stroke-width:2;stroke:#ff8484" x1="789.85" x2="783.35" y1="513.334" y2="513.334"/><line style="fill:none;fill-opacity:0;stroke-width:2;stroke:#ff8484" x1="790.2" x2="783.7" y1="493.934" y2="493.934"/><line style="fill:none;fill-opacity:0;stroke-width:2;stroke:#ff8484" x1="789.65" x2="790" y1="549.094" y2="569.7"/><line style="fill:none;fill-opacity:0;stroke-width:2;stroke:#ff8484" x1="789.75" x2="783.25" y1="569.2" y2="569.2"/><line style="fill:none;fill-opacity:0;stroke-width:2;stroke:#ff8484" x1="790.1" x2="783.6" y1="549.8" y2="549.8"/><g><path style="fill:none;fill-opacity:0;stroke-width:2;stroke-dasharray:2;stroke:#ff8484" d="M 753.708,392.75 A 49.3538,49.3538 0 0 0 783.042,393.053"/><polygon style="fill:#fff" points="784.252 395.824 787.724 391.442 782.136 391.293"/><polygon style="fill:none;fill-opacity:0;stroke-width:2;stroke:#ff8484" points="784.252 395.824 787.724 391.442 782.136 391.293"/></g><g><path style="fill:none;fill-opacity:0;stroke-width:2;stroke-dasharray:2;stroke:#ff8484" d="M 796.338,500.253 A 63.4678,63.4678 0 0 0 754.892,382.7"/><polygon style="fill:#fff" points="795.536 498.321 791.972 502.627 797.555 502.895"/><polygon style="fill:none;fill-opacity:0;stroke-width:2;stroke:#ff8484" points="795.536 498.321 791.972 502.627 797.555 502.895"/></g><g><path style="fill:none;fill-opacity:0;stroke-width:2;stroke-dasharray:2;stroke:#ff8484" d="M 795.51,554.953 A 86.6963,86.6963 0 0 0 754.892,403.65"/><polygon style="fill:#fff" points="794.249 553.15 791.641 558.095 797.162 557.214"/><polygon style="fill:none;fill-opacity:0;stroke-width:2;stroke:#ff8484" points="794.249 553.15 791.641 558.095 797.162 557.214"/></g><text font-size="12.8" style="fill:#ff8484;text-anchor:start;font-family:sans-serif;font-style:normal;font-weight:400" x="792.75" y="458.584"><tspan x="792.75" y="458.584">IBB</tspan></text><text font-size="12.8" style="fill:#ff8484;text-anchor:start;font-family:sans-serif;font-style:normal;font-weight:400" x="792" y="516.808"><tspan x="792" y="516.808">IBB</tspan></text><text font-size="12.8" style="fill:#ff8484;text-anchor:start;font-family:sans-serif;font-style:normal;font-weight:400" x="791.75" y="571.384"><tspan x="791.75" y="571.384">IBB</tspan></text><text font-size="6.773" style="fill:#00f;text-anchor:start;font-family:sans-serif;font-style:normal;font-weight:400" x="713.25" y="394.834"><tspan x="713.25" y="394.834">type 7</tspan></text><text font-size="6.773" style="fill:#00f;text-anchor:start;font-family:sans-serif;font-style:normal;font-weight:400" x="713" y="384.958"><tspan x="713" y="384.958">type 7</tspan></text><text font-size="6.773" style="fill:#00f;text-anchor:start;font-family:sans-serif;font-style:normal;font-weight:400" x="713.25" y="405.458"><tspan x="713.25" y="405.458">type 7</tspan></text><path style="fill:none;fill-opacity:0;stroke-width:2;stroke:#000" d="M 689.334 590.834 C 714.206,590.834 736.628,598.912 761.5,598.912"/><line style="fill:none;fill-opacity:0;stroke-width:2;stroke:#000" x1="761.71" x2="761.5" y1="590.834" y2="599.412"/></svg>